<?xml version="1.0" encoding="UTF-8"?>
<svg xmlns="http://www.w3.org/2000/svg" xmlns:xlink="http://www.w3.org/1999/xlink" width="480pt" height="480pt" viewBox="0 0 480 480" version="1.1">
<g id="surface1">
<path style=" stroke:none;fill-rule:nonzero;fill:#217E6A;fill-opacity:1;" d="M 214.144531 47.367188 C 199.652344 47.367188 187.007813 57.238281 183.492188 71.300781 L 181.578125 78.949219 L 63.15625 78.949219 C 45.703125 78.949219 31.578125 93.070313 31.578125 110.527344 L 31.578125 142.105469 L 47.367188 142.105469 L 47.367188 363.15625 C 47.367188 380.613281 61.492188 394.738281 78.949219 394.738281 L 394.738281 394.738281 C 412.191406 394.738281 426.316406 380.613281 426.316406 363.15625 L 426.316406 142.105469 L 442.105469 142.105469 L 442.105469 110.527344 C 442.105469 93.070313 427.980469 78.949219 410.527344 78.949219 L 292.105469 78.949219 L 290.191406 71.300781 C 286.675781 57.238281 274.09375 47.367188 259.539063 47.367188 Z M 236.84375 126.316406 C 297.902344 126.316406 347.367188 175.78125 347.367188 236.84375 C 347.367188 297.902344 297.902344 347.367188 236.84375 347.367188 C 175.78125 347.367188 126.316406 297.902344 126.316406 236.84375 C 126.316406 175.78125 175.78125 126.316406 236.84375 126.316406 Z M 236.84375 173.683594 C 228.144531 173.683594 221.050781 180.777344 221.050781 189.472656 L 221.050781 221.050781 L 189.472656 221.050781 C 180.777344 221.050781 173.683594 228.144531 173.683594 236.84375 C 173.683594 245.539063 180.777344 252.632813 189.472656 252.632813 L 221.050781 252.632813 L 221.050781 284.210938 C 221.050781 292.90625 228.144531 300 236.84375 300 C 245.539063 300 252.632813 292.90625 252.632813 284.210938 L 252.632813 252.632813 L 284.210938 252.632813 C 292.90625 252.632813 300 245.539063 300 236.84375 C 300 228.144531 292.90625 221.050781 284.210938 221.050781 L 252.632813 221.050781 L 252.632813 189.472656 C 252.632813 180.777344 245.539063 173.683594 236.84375 173.683594 Z "/>
</g>
</svg>
