<?xml version="1.0" encoding="UTF-8"?>
<svg xmlns="http://www.w3.org/2000/svg" xmlns:xlink="http://www.w3.org/1999/xlink" width="480pt" height="480pt" viewBox="0 0 480 480" version="1.1">
<g id="surface1">
<path style=" stroke:none;fill-rule:nonzero;fill:#4788C7;fill-opacity:1;" d="M 240 144 C 142.355469 144 72 242.003906 72 242.003906 C 72 242.003906 80.976563 326.003906 240 326.003906 C 399.023438 326.003906 408 242.003906 408 242.003906 C 408 242.003906 337.644531 144 240 144 Z "/>
<path style=" stroke:none;fill-rule:nonzero;fill:#FFFFFF;fill-opacity:1;" d="M 240 462 C 224.785156 462 210.660156 455.675781 200.207031 444.203125 L 199.199219 443.089844 L 197.785156 442.585938 C 147.671875 424.753906 114 377.089844 114 324 L 114 148.570313 C 114 117.191406 139.523438 91.65625 170.902344 91.65625 L 309.097656 91.65625 C 340.476563 91.65625 366 117.179688 366 148.570313 L 366 324 C 366 377.089844 332.328125 424.753906 282.214844 442.585938 L 280.800781 443.089844 L 279.792969 444.203125 C 269.339844 455.675781 255.214844 462 240 462 Z "/>
<path style=" stroke:none;fill-rule:nonzero;fill:#4788C7;fill-opacity:1;" d="M 309.097656 97.667969 C 337.164063 97.667969 360 120.503906 360 148.570313 L 360 324 C 360 374.554688 327.9375 419.941406 280.199219 436.945313 L 277.367188 437.953125 L 275.351563 440.171875 C 266.050781 450.371094 253.5 456 240 456 C 226.5 456 213.949219 450.371094 204.648438 440.171875 L 202.632813 437.953125 L 199.800781 436.945313 C 152.0625 419.941406 120 374.554688 120 324 L 120 148.570313 C 120 120.503906 142.835938 97.667969 170.902344 97.667969 L 309.097656 97.667969 M 309.097656 85.667969 L 170.902344 85.667969 C 136.164063 85.667969 108 113.832031 108 148.570313 L 108 324 C 108 381.359375 144.660156 430.042969 195.78125 448.246094 C 206.746094 460.296875 222.40625 468 240 468 C 257.59375 468 273.253906 460.296875 284.21875 448.246094 C 335.339844 430.042969 372 381.359375 372 324 L 372 148.570313 C 372 113.832031 343.835938 85.667969 309.097656 85.667969 Z "/>
<path style=" stroke:none;fill-rule:nonzero;fill:#B6DCFE;fill-opacity:1;" d="M 384 450 C 350.566406 450 319.703125 438 304.882813 431.207031 C 324.070313 417.769531 366 381.503906 366 321.433594 L 366 238.570313 C 366 193.285156 317.125 164.050781 315.035156 162.816406 L 310.824219 160.34375 L 307.535156 163.96875 C 307.222656 164.316406 275.039063 198.875 194.171875 210.046875 C 155.554688 215.375 113.988281 242.808594 113.988281 290.4375 L 113.988281 321.421875 C 113.988281 382.296875 159.972656 419.941406 181.453125 434.207031 C 165.394531 440.148438 134.652344 450 108 450 C 63.289063 450 32.832031 429.503906 21.359375 420.238281 C 39.191406 404.785156 90 350.050781 90 228 C 90 122.53125 163.054688 113.953125 251.316406 113.953125 L 276 114 C 328.007813 114 390 133.777344 390 228 C 390 350.773438 441.40625 405.433594 458.964844 420.503906 C 448.835938 429.71875 422.207031 450 384 450 Z "/>
<path style=" stroke:none;fill-rule:nonzero;fill:#4788C7;fill-opacity:1;" d="M 251.316406 119.953125 L 263.722656 119.976563 L 276 120 C 325.273438 120 384 138.730469 384 228 C 384 342.613281 428.4375 399.527344 449.964844 420.371094 C 438.191406 429.816406 415.308594 444 384 444 C 357.574219 444 332.722656 436.199219 316.726563 429.769531 C 338.53125 412.234375 372 376.367188 372 321.433594 L 372 238.585938 C 372 189.898438 320.28125 158.953125 318.085938 157.65625 L 309.683594 152.808594 L 303.121094 159.9375 C 302.808594 160.273438 271.621094 193.308594 193.367188 204.121094 C 152.242188 209.796875 108 239.230469 108 290.449219 L 108 321.433594 C 108 376.980469 144.433594 413.964844 168.589844 432.382813 C 152.089844 437.808594 128.722656 444 108 444 C 71.027344 444 44.242188 429.347656 30.671875 419.761719 C 52.429688 398.425781 96 341.507813 96 228 C 96 127.90625 163.308594 119.953125 251.316406 119.953125 M 251.316406 107.953125 C 168.875 107.953125 84 113.195313 84 228 C 84 371.363281 12 420 12 420 C 12 420 47.101563 456 108 456 C 147.636719 456 194.953125 435.371094 194.953125 435.371094 C 194.953125 435.371094 120 396.421875 120 321.433594 C 120 310.679688 120 293.796875 120 290.449219 C 120 246.3125 158.902344 220.992188 195 216 C 279.457031 204.335938 312 168 312 168 C 312 168 360 196.199219 360 238.585938 C 360 256.90625 360 291.347656 360 321.433594 C 360 394.992188 292.714844 431.855469 292.714844 431.855469 C 292.714844 431.855469 335.339844 456 384 456 C 436.703125 456 468 420 468 420 C 468 420 396 371.363281 396 228 C 396 141.648438 344.257813 108 276 108 C 267.851563 108 259.597656 107.953125 251.316406 107.953125 Z "/>
<path style=" stroke:none;fill-rule:nonzero;fill:#DFF0FE;fill-opacity:1;" d="M 400.726563 230.867188 C 378.179688 222.949219 318.023438 204.804688 240 204.804688 C 161.976563 204.804688 101.820313 222.949219 79.273438 230.867188 L 101.675781 62.867188 C 109.753906 55.429688 154.621094 18 240 18 C 325.714844 18 370.308594 55.402344 378.324219 62.855469 Z "/>
<path style=" stroke:none;fill-rule:nonzero;fill:#4788C7;fill-opacity:1;" d="M 240 24 C 318.828125 24 362.015625 56.617188 372.671875 65.855469 L 393.503906 222.132813 C 365.722656 213.238281 309.886719 198.804688 239.988281 198.804688 C 170.089844 198.804688 114.265625 213.226563 86.484375 222.132813 L 107.328125 65.855469 C 118.042969 56.566406 161.230469 24 240 24 M 240 12 C 141.613281 12 96 60 96 60 L 72 240 C 72 240 142.355469 210.804688 240 210.804688 C 337.644531 210.804688 408 240 408 240 L 384 60 C 384 60 338.386719 12 240 12 Z "/>
<path style=" stroke:none;fill-rule:nonzero;fill:#4788C7;fill-opacity:1;" d="M 324 282 C 324 291.941406 315.941406 300 306 300 C 296.058594 300 288 291.941406 288 282 C 288 272.058594 296.058594 264 306 264 C 315.941406 264 324 272.058594 324 282 Z "/>
<path style=" stroke:none;fill-rule:nonzero;fill:#4788C7;fill-opacity:1;" d="M 192 282 C 192 291.941406 183.941406 300 174 300 C 164.058594 300 156 291.941406 156 282 C 156 272.058594 164.058594 264 174 264 C 183.941406 264 192 272.058594 192 282 Z "/>
<path style=" stroke:none;fill-rule:nonzero;fill:#FFFFFF;fill-opacity:1;" d="M 306 180 C 306 216.449219 276.449219 246 240 246 C 203.550781 246 174 216.449219 174 180 C 174 143.550781 203.550781 114 240 114 C 276.449219 114 306 143.550781 306 180 Z "/>
<path style=" stroke:none;fill-rule:nonzero;fill:#4788C7;fill-opacity:1;" d="M 240 120 C 273.085938 120 300 146.914063 300 180 C 300 213.085938 273.085938 240 240 240 C 206.914063 240 180 213.085938 180 180 C 180 146.914063 206.914063 120 240 120 M 240 108 C 200.230469 108 168 140.230469 168 180 C 168 219.769531 200.230469 252 240 252 C 279.769531 252 312 219.769531 312 180 C 312 140.230469 279.769531 108 240 108 Z "/>
<path style=" stroke:none;fill-rule:nonzero;fill:#4788C7;fill-opacity:1;" d="M 252 180 C 252 186.628906 246.628906 192 240 192 C 233.371094 192 228 186.628906 228 180 C 228 173.371094 233.371094 168 240 168 C 246.628906 168 252 173.371094 252 180 Z "/>
</g>
</svg>
