<?xml version="1.0" encoding="UTF-8"?>
<svg xmlns="http://www.w3.org/2000/svg" xmlns:xlink="http://www.w3.org/1999/xlink" width="208pt" height="208pt" viewBox="0 0 208 208" version="1.1">
<g id="surface1">
<path style=" stroke:none;fill-rule:nonzero;fill:#217E6A;fill-opacity:1;" d="M 114.242188 7.878906 C 103.378906 7.878906 94.546875 16.710938 94.546875 27.574219 C 94.546875 38.441406 103.378906 47.273438 114.242188 47.273438 C 125.105469 47.273438 133.9375 38.441406 133.9375 27.574219 C 133.9375 16.710938 125.105469 7.878906 114.242188 7.878906 Z M 102.425781 55.152344 C 93.746094 55.152344 86.667969 62.230469 86.667969 70.910156 L 86.667969 133.9375 L 102.425781 133.9375 L 112.765625 122.859375 L 102.425781 115.71875 C 99.101563 113.074219 98.761719 108.886719 99.222656 104.394531 C 100.609375 106.703125 102.761719 108.703125 104.886719 110.304688 L 128.523438 124.582031 C 130.09375 125.382813 130.890625 125.320313 132.460938 125.320313 C 134.832031 125.320313 137.785156 123.753906 139.355469 121.382813 C 141.726563 118.242188 140.339844 113.410156 136.402344 111.042969 L 112.765625 97.007813 L 105.625 70.417969 L 118.183594 96.023438 L 131.476563 102.425781 L 141.816406 102.425781 L 141.816406 81.25 L 160.777344 102.425781 L 181.210938 102.425781 L 146.496094 60.566406 C 143.355469 57.429688 139.417969 55.152344 134.679688 55.152344 Z M 143.296875 110.304688 C 146.433594 114.242188 148.21875 121.320313 144.28125 126.0625 C 141.910156 129.199219 137.878906 131.476563 133.9375 131.476563 C 129.199219 131.476563 118.183594 126.0625 118.183594 126.0625 L 103.65625 141.816406 L 55.152344 141.816406 C 46.472656 141.816406 39.394531 148.898438 39.394531 157.574219 C 39.394531 166.253906 46.472656 173.332031 55.152344 173.332031 L 110.304688 173.332031 C 115.042969 173.332031 118.183594 170.195313 118.183594 165.453125 C 118.183594 160.714844 115.042969 157.574219 110.304688 157.574219 L 63.03125 152.898438 L 110.304688 153.636719 C 118.980469 153.636719 126.0625 156.777344 126.0625 165.453125 C 126.0625 168.59375 125.167969 170.964844 123.597656 173.332031 L 194.507813 173.332031 C 200.015625 173.332031 204.847656 168.5 204.847656 162.992188 C 204.847656 157.484375 201 153.699219 195.492188 152.898438 L 129.507813 149.203125 L 142.558594 131.476563 L 177.273438 129.261719 C 182.011719 129.261719 186.628906 124.398438 186.628906 119.660156 C 186.628906 114.917969 182.042969 110.304688 176.535156 110.304688 Z M 19.695313 126.0625 C 8.832031 126.0625 0 134.894531 0 145.757813 C 0 156.621094 8.832031 165.453125 19.695313 165.453125 C 30.5625 165.453125 39.394531 156.621094 39.394531 145.757813 C 39.394531 134.894531 30.5625 126.0625 19.695313 126.0625 Z M 7.878906 173.332031 C 3.140625 173.332031 0 177.273438 0 181.210938 L 0 196.96875 L 204.847656 196.96875 L 204.847656 181.210938 L 39.394531 181.210938 L 33.976563 175.796875 C 32.40625 174.226563 30.683594 173.332031 28.3125 173.332031 Z "/>
</g>
</svg>
