<?xml version="1.0" encoding="UTF-8"?>
<svg xmlns="http://www.w3.org/2000/svg" xmlns:xlink="http://www.w3.org/1999/xlink" width="480pt" height="480pt" viewBox="0 0 480 480" version="1.1">
<g id="surface1">
<path style=" stroke:none;fill-rule:nonzero;fill:#00695C;fill-opacity:1;" d="M 190 40 C 162.421875 40 140 62.421875 140 90 C 140 117.578125 162.421875 140 190 140 C 217.578125 140 240 117.578125 240 90 C 240 62.421875 217.578125 40 190 40 Z M 190 160 C 121.640625 160 100 200 100 200 L 100 220 L 280 220 L 280 200 C 280 200 258.359375 160 190 160 Z M 350 160 C 344.453125 160 340 164.453125 340 170 C 340 175.546875 344.453125 180 350 180 C 355.546875 180 360 175.546875 360 170 C 360 164.453125 355.546875 160 350 160 Z M 350 190 C 333.4375 190 320 203.4375 320 220 L 380 220 C 380 203.4375 366.5625 190 350 190 Z M 40 240 L 40 280 L 440 280 L 440 240 Z M 60 300 L 60 440 L 420 440 L 420 300 Z "/>
</g>
</svg>
