<?xml version="1.0" encoding="UTF-8"?>
<svg xmlns="http://www.w3.org/2000/svg" xmlns:xlink="http://www.w3.org/1999/xlink" width="480pt" height="480pt" viewBox="0 0 480 480" version="1.1">
<g id="surface1">
<path style=" stroke:none;fill-rule:nonzero;fill:#217E6A;fill-opacity:1;" d="M 236.84375 31.578125 C 228.144531 31.578125 221.050781 38.671875 221.050781 47.367188 L 221.050781 50.082031 C 221.050781 57.605469 215.75 64.390625 208.285156 65.5625 C 204.644531 66.117188 201.070313 66.796875 197.554688 67.597656 C 190.214844 69.324219 182.8125 65.132813 179.914063 58.222656 L 178.863281 55.757813 C 175.535156 47.675781 166.34375 43.851563 158.265625 47.246094 C 150.183594 50.574219 146.359375 59.765625 149.753906 67.84375 L 150.738281 70.375 C 153.699219 77.34375 151.355469 85.546875 144.941406 89.554688 C 141.859375 91.46875 138.835938 93.441406 135.875 95.601563 C 129.769531 99.917969 121.257813 98.929688 115.953125 93.625 L 114.042969 91.714844 C 107.875 85.546875 97.882813 85.546875 91.714844 91.714844 C 85.546875 97.882813 85.546875 107.875 91.714844 114.042969 L 93.625 115.953125 C 98.929688 121.257813 99.917969 129.707031 95.601563 135.875 C 93.441406 138.835938 91.46875 141.859375 89.554688 144.941406 C 85.546875 151.355469 77.28125 153.699219 70.3125 150.800781 L 67.84375 149.753906 C 59.765625 146.421875 50.515625 150.246094 47.183594 158.328125 C 43.851563 166.34375 47.675781 175.597656 55.757813 178.925781 L 58.222656 179.914063 C 65.132813 182.8125 69.324219 190.214844 67.597656 197.554688 C 66.796875 201.070313 66.117188 204.644531 65.5 208.285156 C 64.328125 215.75 57.605469 221.050781 50.082031 221.050781 L 47.367188 221.050781 C 38.671875 221.050781 31.578125 228.144531 31.578125 236.84375 C 31.578125 245.539063 38.671875 252.632813 47.367188 252.632813 L 50.082031 252.632813 C 57.605469 252.632813 64.390625 257.9375 65.5625 265.398438 C 66.117188 269.039063 66.796875 272.613281 67.597656 276.128906 C 69.324219 283.46875 65.132813 290.871094 58.222656 293.769531 L 55.757813 294.820313 C 47.675781 298.148438 43.851563 307.339844 47.246094 315.417969 C 50.574219 323.5 59.765625 327.324219 67.84375 323.929688 L 70.375 322.945313 C 77.34375 320.046875 85.546875 322.328125 89.554688 328.742188 C 91.46875 331.824219 93.503906 334.847656 95.601563 337.808594 C 99.980469 343.976563 98.992188 352.425781 93.625 357.730469 L 91.714844 359.703125 C 85.546875 365.871094 85.546875 375.863281 91.714844 381.96875 C 97.882813 388.136719 107.875 388.199219 114.042969 381.96875 L 115.953125 380.121094 C 121.320313 374.753906 129.769531 373.765625 135.875 378.144531 C 138.835938 380.242188 141.859375 382.277344 144.941406 384.191406 C 151.355469 388.199219 153.699219 396.402344 150.863281 403.371094 L 149.753906 405.839844 C 146.421875 413.917969 150.246094 423.171875 158.328125 426.5625 C 166.40625 429.894531 175.597656 426.070313 178.925781 417.988281 L 179.976563 415.523438 C 182.875 408.613281 190.277344 404.421875 197.613281 406.085938 C 201.128906 406.886719 204.707031 407.628906 208.285156 408.183594 C 215.75 409.355469 221.050781 416.078125 221.050781 423.601563 L 221.050781 426.316406 C 221.050781 435.011719 228.144531 442.105469 236.84375 442.105469 C 245.539063 442.105469 252.632813 435.011719 252.632813 426.316406 L 252.632813 423.601563 C 252.632813 416.078125 257.9375 409.292969 265.398438 408.121094 C 269.039063 407.566406 272.613281 406.886719 276.128906 406.085938 C 283.46875 404.359375 290.871094 408.550781 293.769531 415.460938 L 294.820313 417.925781 C 298.148438 426.007813 307.339844 429.832031 315.417969 426.5 C 323.5 423.109375 327.324219 413.917969 323.929688 405.839844 L 322.945313 403.308594 C 320.046875 396.339844 322.328125 388.136719 328.742188 384.128906 C 331.824219 382.214844 334.847656 380.179688 337.808594 378.082031 C 343.976563 373.703125 352.425781 374.691406 357.730469 379.996094 L 359.703125 381.96875 C 365.871094 388.136719 375.863281 388.136719 381.96875 381.96875 C 388.136719 375.800781 388.199219 365.808594 381.96875 359.640625 L 380.121094 357.730469 C 374.753906 352.363281 373.765625 343.914063 378.144531 337.808594 C 380.242188 334.847656 382.277344 331.824219 384.191406 328.679688 C 388.199219 322.328125 396.402344 319.984375 403.371094 322.882813 L 405.839844 323.929688 C 413.917969 327.261719 423.171875 323.4375 426.5625 315.359375 C 429.894531 307.277344 426.070313 298.089844 417.988281 294.757813 L 415.523438 293.707031 C 408.613281 290.808594 404.421875 283.410156 406.085938 276.070313 C 406.886719 272.554688 407.628906 268.976563 408.183594 265.398438 C 409.355469 257.9375 416.078125 252.632813 423.601563 252.632813 L 426.316406 252.632813 C 435.011719 252.632813 442.105469 245.539063 442.105469 236.84375 C 442.105469 228.144531 435.011719 221.050781 426.316406 221.050781 L 423.601563 221.050781 C 416.078125 221.050781 409.292969 215.75 408.121094 208.285156 C 407.566406 204.644531 406.886719 201.070313 406.085938 197.554688 C 404.359375 190.214844 408.550781 182.8125 415.460938 179.914063 L 417.925781 178.863281 C 426.007813 175.535156 429.832031 166.34375 426.5 158.265625 C 423.109375 150.183594 413.917969 146.359375 405.839844 149.753906 L 403.308594 150.738281 C 396.339844 153.640625 388.136719 151.355469 384.128906 144.941406 C 382.214844 141.859375 380.179688 138.835938 378.082031 135.8125 C 373.703125 129.707031 374.691406 121.257813 379.996094 115.953125 L 381.96875 113.980469 C 388.136719 107.8125 388.136719 97.820313 381.96875 91.652344 C 375.800781 85.484375 365.808594 85.484375 359.640625 91.652344 L 357.730469 93.625 C 352.425781 98.929688 343.914063 99.980469 337.808594 95.601563 C 334.847656 93.503906 331.824219 91.46875 328.679688 89.554688 C 322.328125 85.546875 319.984375 77.28125 322.882813 70.3125 L 323.929688 67.84375 C 327.261719 59.765625 323.4375 50.515625 315.359375 47.183594 C 307.339844 43.851563 298.089844 47.675781 294.757813 55.757813 L 293.707031 58.222656 C 290.808594 65.132813 283.410156 69.324219 276.070313 67.597656 C 272.554688 66.796875 268.976563 66.117188 265.398438 65.5 C 257.9375 64.328125 252.632813 57.605469 252.632813 50.082031 L 252.632813 47.367188 C 252.632813 38.671875 245.539063 31.578125 236.84375 31.578125 Z M 236.84375 110.527344 C 301.234375 110.527344 354.277344 158.757813 362.109375 221.050781 L 264.164063 221.050781 C 258.492188 211.308594 248.128906 205.261719 236.84375 205.261719 L 187.808594 120.394531 C 202.917969 114.042969 219.449219 110.527344 236.84375 110.527344 Z M 160.609375 136.308594 L 209.519531 221.050781 C 206.742188 225.863281 205.261719 231.292969 205.261719 236.84375 C 205.261719 242.394531 206.742188 247.757813 209.519531 252.570313 L 160.546875 337.316406 C 130.203125 314.246094 110.527344 277.917969 110.527344 236.84375 C 110.527344 195.765625 130.203125 159.375 160.609375 136.308594 Z M 264.164063 252.632813 L 362.109375 252.632813 C 354.277344 314.925781 301.234375 363.15625 236.84375 363.15625 C 219.449219 363.15625 202.917969 359.640625 187.808594 353.289063 L 236.84375 268.421875 C 248.128906 268.421875 258.550781 262.375 264.164063 252.632813 Z "/>
</g>
</svg>
